/* XPM */
static char *collectable1681669821[] = {
/* columns rows colors chars-per-pixel */
"30 30 90 1 ",
"  c #F9DF16",
". c #FADF1C",
"X c #F9E009",
"o c #F8E109",
"O c #FAE108",
"+ c #FBE00A",
"@ c #FAE10A",
"# c #FAE10B",
"$ c #F9E20A",
"% c #FBE20B",
"& c #FAE017",
"* c #FAE01A",
"= c #F8DE2F",
"- c #F9DE2F",
"; c #F7DD32",
": c #F7DC33",
"> c #F9DF30",
", c #F8DC33",
"< c #F6DD38",
"1 c #F7DE39",
"2 c #F5DC3A",
"3 c #F8E028",
"4 c #EFD74F",
"5 c #F3D944",
"6 c #F3DB47",
"7 c #F2D94B",
"8 c #F6DA48",
"9 c #F2D84F",
"0 c #EFD751",
"q c #EED556",
"w c #EFD657",
"e c #EED757",
"r c #EFD658",
"t c #EDD55B",
"y c #EED45B",
"u c #EAD35F",
"i c #F2D850",
"p c #F3D951",
"a c #F0D852",
"s c #DFC97E",
"d c #E6CF6F",
"f c #E7CF6F",
"g c #EAD361",
"h c #EAD363",
"j c #EDD362",
"k c #ECD263",
"l c #EBD460",
"z c #EDD460",
"x c #EAD264",
"c c #EDD364",
"v c #EBD464",
"b c #E8D169",
"n c #E9D26A",
"m c #E3CE71",
"M c #E5CD73",
"N c #E0CB7C",
"B c #BBABAB",
"V c #BBADAA",
"C c #BCADAA",
"Z c #BEACAA",
"A c #BDAEAB",
"S c #BBADAC",
"D c #BBADAD",
"F c #BCACAC",
"G c #BCACAD",
"H c #BDADAD",
"J c #BEACAC",
"K c #BFADAD",
"L c #BDADAE",
"P c #CDBB97",
"I c #CFBB96",
"U c #C7B59F",
"Y c #CEBB9A",
"T c #CCBC98",
"R c #CEBC98",
"E c #D1BE93",
"W c #D0BD95",
"Q c #C0AFA8",
"! c #C2B0A2",
"~ c #C3B1A3",
"^ c #C3B2A2",
"/ c #C4B1A3",
"( c #C7B5A1",
") c #C3B1A5",
"_ c #DBC683",
"` c #DAC584",
"' c #DBC685",
"] c #D4C08E",
"[ c #D9C389",
"{ c #D8C489",
/* pixels */
"KBKBFFFZKFFFFFFFKSFBSGSGFGZFFF",
"KFFSFFFFFFFFG/W_bgggggggggmWQF",
"SFFFFFGPg87:@@@@@@@@@@@@@@ iUF",
"FFFB/N1@O@O@X@@@@@@@@@@@@@ 0(F",
"FFGGm@@@@@@@@@-<ekyguggylxmWQF",
"GVGN@+X@55y{/FFGVFFFKGGFSKFFFF",
"GFP@@@N/FFFFFFFFFGFFVGFFSGFBFF",
"FFt@XtFFFFFFFSZFFFFFFGFFGGFFFF",
"GR@%XRFFFFFFFFFFFFFFFFFFFFFFFF",
"Ff@@iFFFFFFFFFFFFFFFFFFFFFFFFF",
"FgX%gFFFFFFFFFFFFFFFFFFFFFFFFF",
"Fg@@gFFFFFFFFFFFFFFFFFFFFFFFFF",
"Fk@@gFFFFFFFFFFFFFFFFFFFFFFFFF",
"FgX@gFBFFFFFFFFFFFFFFFFFFFFFFF",
"Zg@@gSFFFFFFFFFFFFFFFFFFFFFFFF",
"Kg@@kFFFFFFFFFFFFFFFFFFFFFFFFF",
"Bg@@gFFKFFFFFFFFFFFFFFFFFFFFFF",
"Bd@@iGKBFFFFFFGGFFFFFFFFFFFFFF",
"SR@@@~BVFFKFFGGGFFFFFFFFFFFFFF",
"GF,@@[SBVFFFFGGSFFFFFFFFFFFFFF",
"FSv@@9~ZFFFFFFFFFFFFFFFFFFFFFF",
"FZR3@@sVFFFFFFFGFFFFFFFFFFFFFF",
"FFKs@@*`KVFFFFVSFFFFFFFFFFFFFF",
"GVS~0%%*xRKFGFBKFFFFFFFFFFFFFF",
"ZVGGT>X+@@-<elgb_E{EE{_bt8{BFF",
"VFFFFT0X@X@O@@@@@@OO@@XX@@<VFF",
"KKFFFF~{e@@@@@@@X%O%X@@@@@mFFF",
"FSZFFFFFF/P_buke<;;;:><eb{!FFF",
"FFFFFFFFFFFFFFFZFFFFKFKBBFFFFF",
"FFBFFFFFVFFFFGFFFFFFFFFFFFFGFF"
};
