/* XPM */
static char *collectable1682375870[] = {
/* columns rows colors chars-per-pixel */
"30 30 7 1 ",
"  c #E0D114",
". c #E0D116",
"X c #E3D117",
"o c #E0D018",
"O c #BAACAB",
"+ c #BCACAC",
"@ c #BCACAD",
/* pixels */
"+O++++++++++++++++++++++++++++",
"++++++++++++++++++++++++++O+++",
"++++..X.....................++",
"+++.X.o.....................++",
"++.....X....................++",
"++.....+++++++++++++++++++++++",
"++....++++++++++++++++++++++++",
"++...+++++++++++++++++++++++++",
"++...+++++++++++++++++++++++++",
"++...+++++++++++++++++++++++++",
"++...+++++++++++++++++++++++++",
"++...+++++++++++++++++++++++++",
"++...+++++++++++++++++++++++++",
"++...+++++++++++++++++++++++++",
"++...+++++++++++++++++++++++++",
"++...+++++++++++++++++++++++++",
"++...+++++++++++++++++++++++++",
"++...+++++++++++++++++++++++++",
"++...+++++++++++++++++++++++++",
"++...+++++++++++++++++++++++++",
"++...+++++++++++++++++++++++++",
"++...+++++++++++++++++++++++++",
"++...+++++++++++++++++++++++++",
"++...+++++++++++++++++++++++++",
"++... ++++++++++++++++++++++++",
"++....X+++++++++++++++++++O+++",
"++..........................++",
"+++.X..................... .++",
"++++X.......................++",
"++++O+++++++++++++++++++++++++"
};
