/* XPM */
static char *exit1682368255[] = {
/* columns rows colors chars-per-pixel */
"30 30 32 1 ",
"  c #3FA30D",
". c #3CA20E",
"X c #3DA30F",
"o c #3EA20E",
"O c #3FA30F",
"+ c #3DA40D",
"@ c #3FA211",
"# c #3EA410",
"$ c #40A20F",
"% c #40A312",
"& c #40A410",
"* c #41A318",
"= c #BBABAB",
"- c #BDABA9",
"; c #BBADAA",
": c #BAACAB",
"> c #BCADA8",
", c #BCADAA",
"< c #BDAEAB",
"1 c #BBABAC",
"2 c #BFABAC",
"3 c #BEABAD",
"4 c #BBADAC",
"5 c #BBADAD",
"6 c #BCACAC",
"7 c #BCACAD",
"8 c #BDADAD",
"9 c #BEACAC",
"0 c #BCAEAD",
"q c #BDADAE",
"w c #BCAEAE",
"e c #BEAEAE",
/* pixels */
"9955==9595=95=956=666666666,66",
"959OOOOOOOOOOOOOOOOOOOOOO66666",
"=55OO@OOOOOOOOOOOOOOOOOOO=6366",
"99=OOOOOOOOOOOOO&OOOO*OOO6,666",
"9;,OOO63599===95959,9936666666",
"35=OOO59==55959=,=5=51;6666666",
";19OOO=695=9595=95155966666666",
"955O O669=59==59=5991566666666",
"65;OOO655=95==95;6,66,6,666595",
"315OO$6959=5959=59666666665=59",
",39@$O5===99595==,5966,66,1951",
"59;OOO93955===5959==66666,5;99",
"=95OOO;5=559995==9555935666319",
"5==OOO5,99==5=5959=911;;663,59",
"9=,O@O#.OOOOOOOOOOOOOOOO@9;599",
"559OOOOOOOOOOOOOOOOOOOOOO15966",
";1,OOOOOOOOOOOOOOOOOOOOOO155==",
"59=OOO=559=9=59==59=5=591;=959",
"1=9O#O955=9=99559955=5=995=5=5",
"955OOO9=9=555==95==999=5=59199",
";==O@O5=5=999==59==555=9=95991",
"959OOO599=5=55995599=9=559=95;",
"5=5OOO1,95=5=95==95=9=955=5919",
"599OOO59=599=59==59=559=;9===5",
"995OOO=;;=95=955995=95==9=95;3",
"5==O.O;3359=59=95=59=59595;=59",
",33OOOOOOOOOOOOOOOOOOOOO@5193=",
"3,6OOOOOOOOOOOOOOOOOOOOO#95953",
"596OOOOOOOOOOOOOOOOOOOOOO5;195",
"55=65=66=5599==59==5599=1;35;3"
};
