/* XPM */
static char *exit1681669821[] = {
/* columns rows colors chars-per-pixel */
"30 30 88 1 ",
"  c #3FA30D",
". c #3FA10E",
"X c #3CA20E",
"o c #3DA30F",
"O c #3EA20E",
"+ c #3FA30F",
"@ c #3FA211",
"# c #3EA410",
"$ c #40A20F",
"% c #40A410",
"& c #42A318",
"* c #41A31C",
"= c #42A21D",
"- c #43A31D",
"; c #45A21E",
": c #46A31F",
"> c #45A424",
", c #4AA429",
"< c #4BA42C",
"1 c #4FA42D",
"2 c #4DA42F",
"3 c #4FA42F",
"4 c #4EA534",
"5 c #50A434",
"6 c #55A437",
"7 c #52A438",
"8 c #53A539",
"9 c #55A439",
"0 c #54A53C",
"q c #56A53C",
"w c #5BA641",
"e c #5DA446",
"r c #5FA447",
"t c #63A54D",
"y c #65A54E",
"u c #65A54F",
"i c #66A64F",
"p c #67A550",
"a c #69A454",
"s c #6AA555",
"d c #6CA757",
"f c #6CA558",
"g c #6DA659",
"h c #70A65A",
"j c #70A65B",
"k c #71A55D",
"l c #71A75C",
"z c #71A65E",
"x c #73A75F",
"c c #74A65F",
"v c #73A560",
"b c #76A561",
"n c #74A661",
"m c #74A563",
"M c #75A762",
"N c #7AA766",
"B c #7BA468",
"V c #7AA669",
"C c #7CA569",
"Z c #85A671",
"A c #84A771",
"S c #86A674",
"D c #93A782",
"F c #94A883",
"G c #94A885",
"H c #97A886",
"J c #99A887",
"K c #98A987",
"L c #9BA88A",
"P c #9FA98E",
"I c #A0AA91",
"U c #A5AA94",
"Y c #A8A997",
"T c #ACAA9B",
"R c #ADA99D",
"E c #B4ABA4",
"W c #B4ABA6",
"Q c #BBABAB",
"! c #BCADAA",
"~ c #BEABAD",
"^ c #BBADAC",
"/ c #BBADAD",
"( c #BCACAC",
") c #BCACAD",
"_ c #BDADAD",
"` c #BEACAC",
"' c #BFADAD",
"] c #BDADAE",
/* pixels */
"((YljY))(((EUPPDNdttpdypH))(((",
"((l++%22+$+#++++ $++++++<Q))((",
"((q@ #++++  +++$ #++@+++>())((",
"((w+ $++++#@145,$*===*+;Z(((((",
"(!g++dUUE)(((((((((((((())((((",
"((n++M()))!(!((((((((((((((()(",
"((M++n())((()(((((((!)Q^((((((",
"((c++n^!(((()('(((((()((((((((",
"((M@+M()((((((((((!((!((((((((",
"(Qn%+b()(((((((((((((((()(((((",
"((m%.cQ)(((Q()(((!)Q(((Q)(((((",
"((l+$6lnMcMMMvcMnnMnMMatJ(((((",
"((j$+++X++++++++++++++++q))()`",
"((j+++.++++++++++$++$+++Z!(()'",
"((l$+7vMMvMvvMvMccMMMnBLE(((((",
"(QM$.M(((((((((Q((((!^((((((((",
"((n++nQ(((((((((((((((((((((((",
"((n++n((((((((((((((((((((((((",
"((M++n((((((((((((((((((((((((",
"((n++M((((((((((((((((((((((((",
"((n++nQ(((((((((((((((((((((((",
"(Qn++n((((((((((((((((((((((((",
"((n++n((((((((((((((((((((((((",
"((n++M((((((((Q^((((((((((((((",
"()M++c(!)^(Q(((Q(QQ!)((!((((!(",
"((l++jUPPPPIGVMdrdng72$qJ(((((",
"((y@++++++++$ $$++++++$+q)(!((",
"((2$++++@+++++$$++++%# $Z`((!(",
"Q(g+++3745557dMaedMCDURTE()()(",
"((YlgY))(()(()((QQ)Q)((((()!(("
};
