/* XPM */
static char *exit31682368256[] = {
/* columns rows colors chars-per-pixel */
"30 30 22 1 ",
"  c #3EA20C",
". c #3FA30D",
"X c #3DA30F",
"o c #3EA20E",
"O c #3FA30F",
"+ c #3FA211",
"@ c #40A20F",
"# c #40A40E",
"$ c #40A410",
"% c #BBABAB",
"& c #BBACA9",
"* c #BCADAA",
"= c #BEACAA",
"- c #BDAEAB",
"; c #BBABAC",
": c #BBADAC",
"> c #BBADAD",
", c #BCACAC",
"< c #BCACAD",
"1 c #BDADAD",
"2 c #BEACAC",
"3 c #C0ACAD",
/* pixels */
"111%%%1>%>%1%1%11;1%1%1%1%1&,,",
"1&%1OOOOOOOOOOOOOOOO+OOOOO>13*",
"1**1OOO$OOOOOOOOOOOOOOOOOO,,>*",
"%>%1OOOOOOOOOOOOOOO$OOO$O+,,&1",
"1%%11%1%%1%1%1%11%1%1&%OOO;,,,",
"211;%1%11%1%1%1%%1%1;%2OOO,,%,",
";1%1111%%1%1%1%11;1%1;,OOO&,*2",
"1%1;%*%11%1%1%1%%1%1%11OOO1,*2",
",%,,,,,,%1%1%1%1,,1,,,,OOO1;*%",
",,,,,,,,1%1%1%1%,,,%,>,OOO%111",
",*,,,,>%%1%1%1%1,,,,,,1OOO%1*1",
",,,,,,1&1%1%1%1%,,,,,,,OOO1%1%",
",2&,%%*;1%1%%1%11&>*>%1OOO1%1%",
",,,,O+@OOOOOOOOOOO+OOOOOOO%1&1",
",,1,OOO+OOOOOOOOOOO#OOOOOO111%",
",,,,OOOOOOOOOOOO+O@OOOOOOO1;%1",
",,,,,,,,1%1%1%1%1%1%1%1OOO1%1%",
",,,,,,,,%1%1%1%1%1%1%1%OOO%1%1",
",,,,,,,,1%1%1%1%1%1%1%1OOO1%1%",
",,,,,,,,%1%1%1%1%1%1%1%OOO%1%1",
",,,,,,,,1%1%1%1%1%1%1%1OOO1%1%",
",,,,,,,,%1%1%1%1%1%1%1%OOO%1%1",
",,,,,,,,1%1%1%1%1%1%1%1OOO1%1%",
",,,,,,,,%1%1%1%1%1%1%1%OOO%1%1",
",,,,%1%*1%1%1%1%1*1;1;1OOO1%1%",
",,,,>%1%%1%1%1%1%1%1&>;OOO11;1",
",,1,XOOOOOOOOOOOOOOOOOOOOO%11%",
",,,,OOOOOOOOOOOOOOOOO@OOOO1&%1",
",,,,+OOOOOOOOOOOOO+OOOOOOO%1%1",
",,,,%111%1%1%1%1>&,,>&,*>%1%1%"
};
