/* XPM */
static char *exit21682368256[] = {
/* columns rows colors chars-per-pixel */
"30 30 23 1 ",
"  c #3EA20C",
". c #3FA30D",
"X c #3CA20E",
"o c #3DA30F",
"O c #3EA20E",
"+ c #3FA30F",
"@ c #3EA110",
"# c #3FA211",
"$ c #40A20F",
"% c #40A410",
"& c #BBABAB",
"* c #BBACA9",
"= c #BCADAA",
"- c #BEACAA",
"; c #BDAEAB",
": c #BEABAD",
"> c #BBADAC",
", c #BCACAC",
"< c #BCACAD",
"1 c #BDADAD",
"2 c #BEACAC",
"3 c #BDADAE",
"4 c #BFACAE",
/* pixels */
"1*1*,,=,,,<<<,,-,,,,,,,,,,,,1<",
"1*<<,,<,,,*,2<,,,,,,,,,,,,,121",
",==<,<<,,,,,,,-<<,<1,,,,<<,**1",
"1<,,,,,<,1,,,,,,<<*=,,,,<*<<11",
",X++++X%++#$%$@$+++++++$X$++X1",
"2X++++$%+++$$XX$+++++++$$$$$$1",
"1$X$+%%X++X%++$$#++#++X$+X%%X=",
"1%$$1=<=*11=1++$>1*1*1,,1*%X$=",
"1+++,,,,1<,,,$$$,,,,,,,,1*++$,",
"*+++,,,,*<,,,X++,,,,,,,,<1++$<",
"1#$$,,,,<,,,1+++,,,,,,,,<*++$=",
"*+$X,,,,<<,,*+++,,,,,,,,<<$%X1",
"1+++,,,,,,,<1+++,,,,,,,<<,X$X<",
">#++,,,,,,,<>#++,,,,,,,<,,$$%=",
"=+++,,,,,,*<=+++,,,,,,*<1*++X1",
"1+++,,,,,,<<1+++,,,,,,<1>1++#1",
"<X++1<<*,,,,,X++1*,,,,,,<<X$+1",
"1$++*1<<,,,,1$++>1,,,,,,*<%$#*",
"=%$+,,<,,,,,=X%+<,,,,,,,1<+++*",
"<X$+,,,,,,,,<$$$<,,,,,,,*1+++1",
"1+++,,,,,,,,1+++,,,,,,,,<<X$$,",
"*+++,,,,,,,,*+++,,,,,,,,*<%$$,",
"1#$$,,,,,,<>1#++,,,,,,,,1<+$$=",
"*+$X,,,,,,<1*+$$,,,,,,,,*1+%X1",
"1%$X,,,1,,,,-%$%,,,,,,,,1,X$X<",
">X$$,,2-,,,,,$$X,,,,,,,,,,$$X,",
"*<1=,,,,,,,,,1,,,,,,,,,,<>=1,,",
"11*1,,,<,,<,,,,,,,,,,,,,*1*1,,",
"<*<<<*,,,=-=,,,,,,,,,,,,<=,,,,",
"<>*<,,,,,,,,<=,<,,,,,,,,<<,=,<"
};
