/* XPM */
static char *monster31681864396[] = {
/* columns rows colors chars-per-pixel */
"30 30 71 1 ",
"  c #FA0A23",
". c #FB1C2D",
"X c #F72432",
"o c #F92533",
"O c #F92B36",
"+ c #F72F39",
"@ c #F92E39",
"# c #F7333B",
"$ c #F9323B",
"% c #F6393F",
"& c #F53C43",
"* c #F3434A",
"= c #F24E53",
"- c #EE575C",
"; c #ED595D",
": c #F15255",
"> c #F0575B",
", c #ED5C61",
"< c #DF7C7E",
"1 c #EB6265",
"2 c #EB6468",
"3 c #E76A6C",
"4 c #E9696B",
"5 c #E66E70",
"6 c #E57275",
"7 c #E37578",
"8 c #E07D7F",
"9 c #7B78DF",
"0 c #4456F6",
"q c #525EF2",
"w c #5C64ED",
"e c #6067EC",
"r c #6369EC",
"t c #6C6EE9",
"y c #6F72E7",
"u c #6C71E9",
"i c #7274E4",
"p c #7876E1",
"a c #7778E2",
"s c #7B7BE1",
"d c #DF7F80",
"f c #837EDC",
"g c #AB9FBE",
"h c #BEA1A6",
"j c #BCACAC",
"k c #AEA1BC",
"l c #B4A6B4",
"z c #B6A9B2",
"x c #B9A9B1",
"c c #B1A3BA",
"v c #DC8383",
"b c #D88A8A",
"n c #D48E90",
"m c #CF9496",
"M c #CE9896",
"N c #CF9799",
"B c #CD9898",
"V c #D39192",
"C c #CB92A1",
"Z c #C2A4A4",
"A c #988FCE",
"S c #9791CD",
"D c #9B92CC",
"F c #8F88D6",
"G c #8480DB",
"H c #8A85D9",
"J c #938CD3",
"K c #988ED0",
"L c #A297C7",
"P c #A69AC3",
"I c #A99DC1",
/* pixels */
"jjjgJjjjjjjjjjzjjjjjjjjjcDgjjj",
"jjkpwjjjjjjjjIfljjjZjjjxDrJxjj",
"jjgFHjjjjjjjPtqgjjjjjjjzJrJjjj",
"jjjjzjjjv djlPJjjjjZ7&bxDFDkjj",
"jjjjjjZj   ZkGajjjjv  &xcckcjj",
"jjjjjjjZ   NAtfjjjj=  oZjjjjjj",
"zFGjjjjb   vjzcjjjb   OjjjkJzj",
"Pwyxjjj2   1jjjjjZ&   @jjxGwIj",
"Py9xjjj1   #jjjjjb     Zjcsekj",
"cFPAjjj-    BjjjZ=  .  mjcFKDx",
"xzjljjj#    6jjjb  oO  njjIxPx",
"jjjjjjZ     :jjh=  2#  njjjjjj",
"jzjzjjb  O   Zj8  OB#  njjjjjj",
"jHJzjj-  2#  bMo  dj#  Vjjxjjx",
"jqqjjB   B>  ;*  :Zj#  VjjIFPx",
"jJwjj2  ;j3  O  *Njj&  vjjJqFj",
"jjDjZ@  bjb   +;Mjjj;  3jjIsKj",
"jjjjb  @ZjZ   ;jjjjj1  1jjjggj",
"jjjZ:  2jjj< ;Mjjjjj1  1jjjjjj",
"jjjv  XMjjjjjjxjxjjj1  1jjjxjj",
"jjZ=  1jjxjDjxFJljjj4  >jjcKzZ",
"jjb  XMjjkiwjjqqzjjjb  #jcGrkj",
"jZ=  4jjjj0ujjJwjzzjZ   xkKHcj",
"jb  XMjxPjjgjjjDjDyAj   Zjjzjj",
"Z=  3xg9GjjzjzjjjJqJj#  bjjzzx",
"7  OBjgwGxjSFkjjjlFSj2  -jjPJL",
"@  8jjjkPjjyqkjjjjlljB   VjJqJ",
"O %ZjjjjxjjSucjjjjkAlj&  :jgsK",
"d1VjjjjjjjjjDjjjjkfegjb. >jjgk",
"jjjjjjjZjjjjjjjjjkAHljjMdBjjjj"
};
