/* XPM */
static char *monster1681859666[] = {
/* columns rows colors chars-per-pixel */
"30 30 104 2 ",
"   c #F90A21",
".  c #F90922",
"X  c #F90B23",
"o  c #FA0B22",
"O  c #FA0A23",
"+  c #FC0A22",
"@  c #FC0A23",
"#  c #F90B25",
"$  c #FB0B24",
"%  c #FA0A25",
"&  c #FC0925",
"*  c #FC1B2B",
"=  c #F81E2E",
"-  c #F72532",
";  c #F82432",
":  c #FA2736",
">  c #F82835",
",  c #FA2835",
"<  c #F92B37",
"1  c #F82C37",
"2  c #F82F37",
"3  c #F72F39",
"4  c #F92D38",
"5  c #F82F39",
"6  c #F7323B",
"7  c #F7343C",
"8  c #F6393F",
"9  c #F63940",
"0  c #F53C42",
"q  c #F63B44",
"w  c #F53C44",
"e  c #F43F46",
"r  c #F34248",
"t  c #F24B52",
"y  c #F14E51",
"u  c #F24F52",
"i  c #F24F54",
"p  c #EE575C",
"a  c #EE575E",
"s  c #ED585C",
"d  c #ED5B5C",
"f  c #EF585F",
"g  c #ED5B5E",
"h  c #F15055",
"j  c #F15257",
"k  c #F05458",
"l  c #F0575A",
"z  c #F0575C",
"x  c #F1585D",
"c  c #ED5A60",
"v  c #ED5C61",
"b  c #DF7B7D",
"n  c #DE7E7F",
"m  c #EC6063",
"M  c #EA6367",
"N  c #EC6164",
"B  c #E96467",
"V  c #EB6468",
"C  c #E7696C",
"Z  c #E66A6C",
"A  c #E9696A",
"S  c #E9686C",
"D  c #E66E70",
"F  c #E57275",
"G  c #E37578",
"H  c #E07C7E",
"J  c #E07E7F",
"K  c #DF7F80",
"L  c #BBABAB",
"P  c #BDABA9",
"I  c #BDABAB",
"U  c #BBACA9",
"Y  c #BAACAB",
"T  c #BCADAA",
"R  c #BBABAC",
"E  c #BEABAD",
"W  c #BBADAC",
"Q  c #BBADAD",
"!  c #BCACAC",
"~  c #BCACAD",
"^  c #BDADAD",
"/  c #BEACAC",
"(  c #BFADAD",
")  c #DE8080",
"_  c #DE8081",
"`  c #DC8483",
"'  c #DA8686",
"]  c #D8888B",
"[  c #D88A8A",
"{  c #D8898C",
"}  c #D48E90",
"|  c #CF9496",
" . c #CE9896",
".. c #CE979A",
"X. c #CF979A",
"o. c #CC9998",
"O. c #CE9898",
"+. c #CD9A99",
"@. c #D29091",
"#. c #D09597",
"$. c #C3A3A4",
"%. c #C1A2A7",
"&. c #C2A4A4",
"*. c #C2A4A6",
/* pixels */
"! ! ! ! ! ! ! ! ! ! ^ *.Q Q Q ^ ! ! ! ! ! ! ! ! ! ! ! ! ! ! ",
"! ! ! ! ! ! ! ! ! ! *.! Q ^ ^ Q ! ! ! ! ! ! ! ! ! ! ! ! ! ! ",
"L ! ! ! ! ! ! ! ! ! ! ! ! ! ^ ^ ! ! Q ! ! ! ! ! ! ! ! ! ! ! ",
"L ! ! ! ! ! ! ! ) @ ) T ! ! ! Q ! ! ! &.F q { ! ! ! ! ! ! ! ",
"T ! ! ! ! ! ! ! o o o &.^ ! ! ! R ! ! ` $ o 8 I ! ! ! ! ! ! ",
"T ! ! ! ! ! ! $.$ $ o #.! ! ! ! ! R ! t . o ; ~ ! ! ! ! ! ! ",
"! ! L ! ! ! ! [ . $ $ ` ! Q ! ! R R ' & $ . < R ! ! ! ! ! ! ",
"! ! ! ! T ! ! A $ . + N ! T T ^ R &.w $ . $ 3 R ! ! ! ! ! ! ",
"Q I Q Q Q ! Q v . $ $ 6 R R Q Q L [ $ $ . $ . &.! ! ! ! ! ! ",
"I Q I I ! ! Q v $ . . . +.Q R T &.h $ . * o . | ! ! ! ! ! ! ",
"T L I Q ! ! R 6 . $ & o D ! R ! [ $ $ - 1 $ $ } ! ! ! ! ! ! ",
"I Q Q ! T ! &.o $ . o & h ! ! &.y $ o N 3 $ & } ! ! ! ! ! ! ",
"Q I L Q R ! [ $ $ 1 . . o &.R H $ o : ..6 $ $ } ! ! ! ! ! ! ",
"I Q Q I R R p $ $ M 6 o $ [  .: o $ b R 6 $ o } ! ! ! ! ! ! ",
"I Q I Q R ..o o . ..p & $ v r $ o h &.R 6 $ $ } ! ! ! ! ! ! ",
"Q I Q I R B $ $ s R Z o $ < o o r ..~ R 9 o $ ' ! ! ! ! ! ! ",
"I I ! ! &.2 o $ [ ! [ $ $ $ 3 d | Q Q I p $ o C ! ! ! ! ! ! ",
"R T ! ! [ $ o 3 &.! &.$ & o v Q ! ! I Q N o $ N ! ! ! ! ! ! ",
"! T ! &.i o o M ! ! ! K . d ..R ! ! ! I N $ $ v ! ! ! ! ! ! ",
"! T T [ $ o ; ..! ! ! ! R R L T ! ! ! Q N # . N ! ! ! ! ! ! ",
"Q R &.t . o M R T ! T ! ! ! ! ! I Q I T C $ . p ! ! ! ! ! ! ",
"L L [ $ $ ; ..R ! ! ! ! ! ! ! ! Q I Q ~ { $ $ 7 ! ! ! ! ! ! ",
"! &.i o $ V I ! T ! ! ! ! ! ! ! L I R ~ &.. o o ! ! ! ! Q ! ",
"! [ $ o ; O.! ! ! ! ! ! ! ! ! ! I Q I ~ L $ . $ %.! ! T Q ! ",
"&.i $ $ V Q ! ! ! ! ! ! ! ! ! ! Q T R ! R 7 $ o [ R ~ ~ I ! ",
"G o o : O.! ! ! ! ! ! ! ! ! ! ! I Q ! T Q N o $ p R ~ I Q I ",
"< . $ b ! ! ! ! ! ! ! ! ! ! ! ! ! ! ! ! ~ ..o $ $ @.I ! I Q ",
"< o e &.! ! ! ! ! ! ! ! ! ! ! ! ! L ! R R R 0 o o k ! ! Q I ",
"K N @.R ~ I ! T ! ! ! ! ! ! ! ! ! ! ! ! ! ! [ = $ p ~ ~ I Q ",
"R ~ ! ! ! ! ! ! ! ! ! ! ! ! ! ! I ! ! ! ! ! Q O.) | T Q Q I "
};
