/* XPM */
static char *monster21681864396[] = {
/* columns rows colors chars-per-pixel */
"30 30 221 2 ",
"   c #F90A21",
".  c #F90922",
"X  c #FB0922",
"o  c #F90B23",
"O  c #FA0B22",
"+  c #FA0A23",
"@  c #FC0A22",
"#  c #FC0A23",
"$  c #FB0C23",
"%  c #F90924",
"&  c #F90B25",
"*  c #FB0B24",
"=  c #FA0A25",
"-  c #FB0B26",
";  c #FC0925",
":  c #FA0C26",
">  c #FC1B2B",
",  c #FA1D2E",
"<  c #F7232F",
"1  c #F72532",
"2  c #F82430",
"3  c #F82432",
"4  c #FA2736",
"5  c #F82835",
"6  c #F92B35",
"7  c #F92B37",
"8  c #F82C37",
"9  c #F82F37",
"0  c #F72F39",
"q  c #F92D38",
"w  c #F82F39",
"e  c #F7323B",
"r  c #F7323C",
"t  c #F7343C",
"y  c #F8333C",
"u  c #F63940",
"i  c #F63B42",
"p  c #F53C44",
"a  c #F43F46",
"s  c #F83A44",
"d  c #F44242",
"f  c #F34248",
"g  c #F3444B",
"h  c #F04C4A",
"j  c #F14D4C",
"k  c #F14D4E",
"l  c #F44C4C",
"z  c #F24B52",
"x  c #F14E51",
"c  c #F34E54",
"v  c #F24F54",
"b  c #EE5253",
"n  c #EF5756",
"m  c #EE575C",
"M  c #EE575E",
"N  c #EB5B5B",
"B  c #ED5959",
"V  c #EC5A5A",
"C  c #ED5B5B",
"Z  c #EE5A5A",
"A  c #ED585C",
"S  c #EF585D",
"D  c #EC5A5D",
"F  c #EC5E5D",
"G  c #EE5E5D",
"H  c #EE5C5F",
"J  c #F05052",
"K  c #F15055",
"L  c #F15257",
"P  c #F05455",
"I  c #F05458",
"U  c #F1565A",
"Y  c #F0575C",
"T  c #ED5C61",
"R  c #DF7B7D",
"E  c #DD7F7F",
"W  c #EA6262",
"Q  c #EC6063",
"!  c #E96266",
"~  c #EA6367",
"^  c #EB6367",
"/  c #EC6164",
"(  c #ED6164",
")  c #EA6566",
"_  c #EB6468",
"`  c #E66A6C",
"'  c #E76D6C",
"]  c #EA6868",
"[  c #E9696A",
"{  c #E86A6B",
"}  c #EA6A6B",
"|  c #E9686C",
" . c #E86A6D",
".. c #E5726F",
"X. c #E66E70",
"o. c #E57171",
"O. c #E57373",
"+. c #E47473",
"@. c #E47375",
"#. c #E17777",
"$. c #E17976",
"%. c #E37578",
"&. c #E17978",
"*. c #E1797A",
"=. c #E17A7B",
"-. c #E17A7D",
";. c #E07C7E",
":. c #DF7F80",
">. c #E17F80",
",. c #BFA7A7",
"<. c #B9ABAA",
"1. c #BBABAB",
"2. c #BEA9A8",
"3. c #BCAAA8",
"4. c #BDABA9",
"5. c #BFAAA9",
"6. c #BEA8AA",
"7. c #BCAAAA",
"8. c #BDABAB",
"9. c #BEAAAB",
"0. c #BBACA9",
"q. c #BAACAB",
"w. c #BCADAA",
"e. c #BEACAA",
"r. c #BDAEAB",
"t. c #BBABAC",
"y. c #BDAAAC",
"u. c #BFABAC",
"i. c #BEABAD",
"p. c #BBADAC",
"a. c #BBADAD",
"s. c #B9AEAC",
"d. c #BCACAC",
"f. c #BCACAD",
"g. c #BDADAD",
"h. c #BEACAC",
"j. c #BFADAD",
"k. c #BDADAE",
"l. c #BCACAF",
"z. c #DB8181",
"x. c #DB8382",
"c. c #DE8080",
"v. c #DD8281",
"b. c #DF8182",
"n. c #DA8483",
"m. c #DB8683",
"M. c #DC8482",
"N. c #DC8483",
"B. c #D98585",
"V. c #DB8584",
"C. c #DA8686",
"Z. c #D88985",
"A. c #D88887",
"S. c #D7878A",
"D. c #D68A8A",
"F. c #D78B8B",
"G. c #D58B8C",
"H. c #D68A8C",
"J. c #D68C8D",
"K. c #D58D8E",
"L. c #D98988",
"P. c #D88889",
"I. c #D88A88",
"U. c #D8888B",
"Y. c #D88A8A",
"T. c #D8898C",
"R. c #D4908F",
"E. c #D38F90",
"W. c #D48E90",
"Q. c #CF9496",
"!. c #CD9797",
"~. c #CB9897",
"^. c #CF9798",
"/. c #CE979A",
"(. c #CF979A",
"). c #CB9B9B",
"_. c #CC9998",
"`. c #CE9898",
"'. c #CF9999",
"]. c #CD9A99",
"[. c #CC9A9B",
"{. c #C89C9B",
"}. c #C99D9C",
"|. c #CA9C9C",
" X c #CA9E9D",
".X c #C99D9E",
"XX c #CA9E9F",
"oX c #D29091",
"OX c #D39391",
"+X c #D29092",
"@X c #D29292",
"#X c #D59190",
"$X c #D59192",
"%X c #D19493",
"&X c #D19394",
"*X c #D09494",
"=X c #D19595",
"-X c #D09597",
";X c #C89EA0",
":X c #C99FA0",
">X c #C1A3A3",
",X c #C5A1A1",
"<X c #C7A1A0",
"1X c #C6A2A2",
"2X c #C2A6A3",
"3X c #C4A5A3",
"4X c #C3A3A4",
"5X c #C1A2A7",
"6X c #C2A4A4",
"7X c #C3A5A5",
"8X c #C0A6A5",
"9X c #C2A6A5",
"0X c #C2A4A6",
"qX c #C2A5A7",
"wX c #C3A5A7",
"eX c #C3A7A6",
"rX c #C1A7A8",
"tX c #C0A7AA",
"yX c #C0A8A8",
"uX c #C2A8A9",
"iX c #C1A8AB",
/* pixels */
"1.d.d.d.d.d.d.d.d.r.d.w.u.w.1.q.w.u.p.d.d.d.d.d.d.d.d.iX,Xd.",
"d.d.|.F.2Xd.d.s.d.d.u.w.p.w.iXd.2.iXd.iXd.d.d.d.d.d.1XF.v.p.",
"w.yX$.P |.d.d.d.d.d.d.u.d.d.r.K.V d.p.p.d.d.r.d.w.w.).C &.t.",
"1.,Xo.n  XiXd.d.b.@ b.w.d.d.K.d x d.d.6X@.s T.d.u.w.yXn.H.t.",
"w.2XN.Z.oXyXd.q.+ + @ 6Xd.d.d.d.{.t.t.v.+ * i d.p.d.d.iX6Xd.",
"w.d.|.yX'.yXd.7X+ + * -Xr.d.d.d.t.u.t.z + * < d.d.d.6X,XyXd.",
"w.p.1.d.u.w.d.Y.+ + $ N.d.d.d.d.8.1.C.+ + * 5 d.d.d.-X) Z.u.",
"d.d.d.d.w.d.d.} + + # ( d.d.w.d.1.,.p * + * w t.d.7Xv.b N.u.",
"d.w.'.Y.d.d.q.W + + + e d.p.p.d.p.D.* * * . + 4Xu.rXH.+.H.,.",
"d.yX} h 8.d.w.M + + + + '.p.d.d.4Xc * * > * + Q.t.p.|.|.'.'.",
"w.:XW P yXd.p.t + * + + X.d.1.p.D.+ * 3 5 * * E.p.t.p.u.u.p.",
"d.7X&.F.OXd.6X+ + + + + K d.d.6XJ + + ~ r * + E.d.d.d.u.K.t.",
"d.d.'.8.%Xd.T.+ + 8 + + + 2X8.;.* . 4 _.r * * W.d.d.|.` V 1.",
"d.d.d.d.t.p.M + + ! e + + Y.`.4 * * R t.r * * W.p.d.d.d } d.",
"d.w.d.d.u./.+ + $ /.m + + T f + * b 4X8.r * * W.d.d.d.d.~.t.",
"d.d.d.w.d.) + + m p.` + + 8 + + g '.p.1.i + o n.d.d.d.d.u.w.",
"8.d.d.d.6Xe + + H.p.Y.* + + 0 T !.d.w.d.M + * ` d.t.d.d.d.d.",
"d.d.d.d.Y.* $ 8 4Xl.4X* + + D p.d.d.d.d.( + + ! d.d.d.d.d.d.",
"d.q.w.6XK + $ ! u.p.p.:.. N '.p.d.d.d.p.( + @ ( d.d.u.u.-X1.",
"iXr.w.Y.@ + < '.p.u.p.u.t.t.p.t.d.d.d.8.( + + ( p.q.,X;.) 8.",
"d.d.4Xx + + ) u.w.p.w.w.1.8.8.8.8.p.d.d.| + + M d.d.yXl } d.",
"d.d.Y.+ + 3 `.q.d.d.d.d.q.`.v.!.8.u.d.d.H.+ + t d.p.p.<XK.d.",
"d.6Xc + $ _ q.d.w.6X6Xp.u.A.h C.2.1.t.d.>X  + + u.t.d.w.}.<X",
"d.Y.+ + 1 '.d.iX[.n.-Xp.p._.@.D.1.8.p.u.w.+ + + rXd.6XR.o.R.",
"6Xx o ; ~ p.t.rXC.F K.1.d.d.|.:Xd.d.d.d.p.r + + D.u.1.C.V W.",
"%.+ * 5 _.p.l.p.[.C.'.8.d.t.d.u.8.|.|.w.1.! + $ m w.t.6X!.:X",
"8 + + ;.t.u.w.7X6XrX8.8.p.t.6XK.&.W K.w.t.'.+ + * +Xd.d.u.8.",
"8 + a >Xp.yX'.n.-Xd.1.8.u.7XY.( ' V oXu.t.u.i * * I d.d.p.t.",
"b.( $Xq.w.yXN.( K.w.d.p.u.6XoXv.'.,X,Xd.d.d.D., * m u.p.d.p.",
"w.iXd.d.d.d.[.N.'.d.d.d.p.p.p.rX,.t.t.p.d.d.p.'.E /.8.w.p.u."
};
