/* XPM */
static char *player31682366808[] = {
/* columns rows colors chars-per-pixel */
"30 30 35 1 ",
"  c #0E2BDF",
". c #102ADF",
"X c #0E2BE1",
"o c #0F2CE2",
"O c #0F2BE4",
"+ c #112BE0",
"@ c #102AE1",
"# c #112BE2",
"$ c #102AE3",
"% c #122AE2",
"& c #132BE3",
"* c #122CE1",
"= c #132CE1",
"- c #122CE3",
"; c #112BE4",
": c #132BE5",
"> c #112AE6",
", c #132DE4",
"< c #122CE5",
"1 c #142CE4",
"2 c #BBABAB",
"3 c #BBACA9",
"4 c #BBADAA",
"5 c #BCADAA",
"6 c #BBABAC",
"7 c #BEABAD",
"8 c #BAACAC",
"9 c #BBADAC",
"0 c #BCACAC",
"q c #BCACAD",
"w c #BDADAD",
"e c #BEACAC",
"r c #BFADAD",
"t c #BDADAE",
"y c #BFACAE",
/* pixels */
"0000000000000000r0050522900060",
"050000000000000000000*&X6000r0",
"05000000000000000r000o*&000060",
"000000000000000000000*:X000050",
"500000000000000000004:X&000000",
"000000000000000000006X&X000050",
"000000000000000000690&X&000050",
"000000000000000006969&&&00r050",
"000000000000000000000&&X000000",
"000000000000000000004&X&000000",
"000000000000000000006&X&000t00",
"000000000000000000009&&X000000",
"505005000000000000004XX&000000",
"000000000000000000006&&X000000",
"000050000000000000690&&&000t00",
"000000000000000000064&,,000000",
"000:1&&*&:&X&XX&:&*oo&&X000000",
"000&*&&&&&&&&&&&X &&*X&&000000",
"000,:&X &X**&&X&&&&&:&X:000000",
"000,&,060000460065552X&&000000",
"009&X&000000000000009&&X000000",
"006:.&500y50000000006X&&000000",
"006*11000000000000006XX&000000",
"055&&1006500000000066&& 000000",
"000&&&220000000000r09&X&600000",
"600&&&4400000600r6002O&X960000",
"000*&&066400250562002o& 000000",
"069*&&&X&X&&X&&Xo:&&&X&&000000",
"000&oXX&&XX&&XX&&&&&X&X&000000",
"006,&&&X&&&XX&&&&XXX&X &000000"
};
