/* XPM */
static char *player1682366808[] = {
/* columns rows colors chars-per-pixel */
"30 30 33 1 ",
"  c #0F29E0",
". c #0D2AE0",
"X c #0E2BE1",
"o c #0F2CE0",
"O c #0E2CE2",
"+ c #0F2CE2",
"@ c #0F2BE4",
"# c #112BE0",
"$ c #102AE1",
"% c #112BE2",
"& c #102AE3",
"* c #122AE2",
"= c #132BE3",
"- c #152BE3",
"; c #122CE1",
": c #122CE3",
"> c #112BE4",
", c #132BE5",
"< c #BBABAB",
"1 c #BFABAA",
"2 c #BBACA9",
"3 c #BCADAA",
"4 c #BDAEAB",
"5 c #BBABAC",
"6 c #BFABAC",
"7 c #BBADAC",
"8 c #BBADAD",
"9 c #BCACAC",
"0 c #BCACAD",
"q c #BDADAD",
"w c #BEACAC",
"e c #BFADAD",
"r c #BFACAE",
/* pixels */
"qq<q<q<q<q<q<q<q994999<9999999",
"q2q%O%%%%%%%%%%%%%%%%%%%9999e6",
"74<%o%%%%%%%%%%%%%%%%%%%999999",
"q5q%:%>%%%%%%%#%%>%%>%%%9999q<",
"5qq%%O99<q<q<q<qq9999%-%999999",
"q<9%%%59q<q<q<q<99999-%%9999<9",
"99<%@%qq<q<q<q<q<<999-%%999944",
"999%%%99q<q<q<q<449q9>-%9999<<",
"9<9%%%46<q4<q9994<q<q-%%999999",
"<99%%%9qq<<q<q9946<q<-%-9999q9",
"969%%%q<<q<<<442<<q5q>>>999q99",
"<<<%%%<<44<q9999q<q7<-%-99q999",
"999-%%>>-%-%%%%%:% >%->%999999",
"69<%%%-%O%%%%-->%%%o%:=%9999q9",
"q<q%%%%O%>>%%%%%%---%->-999q59",
"q54%%%<999954<95q<q6e<9999q9q9",
"4<9%%%999999999999999999999999",
"999%%%999999999999999999999999",
"999%%%999999999999999999999999",
"999%%%999999999999999999999999",
"999%%%999999999999999999999999",
"999%%%999999999999999999999999",
"999%%%999999999999999999999999",
"999%%%999999999999999999999999",
"999%%%999999999999999999999999",
"999%%%999999999999999999999999",
"999%%%999999999999999999999999",
"999%%%999999999999999999999999",
"999%%%999999999999999999999999",
"999%%%999999999999999999999999"
};
