/* XPM */
static char *player1681669821[] = {
/* columns rows colors chars-per-pixel */
"30 30 57 1 ",
"  c #0E2BE1",
". c #0F2CE2",
"X c #0F2BE4",
"o c #112BE0",
"O c #102AE1",
"+ c #112BE2",
"@ c #122AE2",
"# c #132BE3",
"$ c #102DE3",
"% c #122CE3",
"& c #112BE4",
"* c #313AE1",
"= c #323EE2",
"- c #343DE2",
"; c #3841DE",
": c #3F44DE",
"> c #3840E0",
", c #4148DF",
"< c #474CDC",
"1 c #4F50DC",
"2 c #7C76CE",
"3 c #6461D6",
"4 c #827DCD",
"5 c #A296BC",
"6 c #A397BD",
"7 c #A698BC",
"8 c #AD9DB8",
"9 c #AC9EB8",
"0 c #BBABAB",
"q c #BBACA9",
"w c #BBADAA",
"e c #BCADAA",
"r c #BEACAA",
"t c #B8A9AC",
"y c #BBABAC",
"u c #BBADAC",
"i c #BCACAC",
"p c #BCACAD",
"a c #BDADAD",
"s c #BEACAC",
"d c #BFADAD",
"f c #BCAEAD",
"g c #BDADAE",
"h c #AEA1B5",
"j c #AEA0B7",
"k c #B2A4B1",
"l c #B3A5B2",
"z c #B5A5B2",
"x c #B8A9B0",
"c c #958AC2",
"v c #9D8FC2",
"b c #9D8FC4",
"n c #9085C9",
"m c #9A90C2",
"M c #9C90C0",
"N c #9C90C2",
"B c #9D91C3",
/* pixels */
"aa08m9qa0ak5mmvmvmNmmNM5kqayii",
"aqa# ## .## #### ######%20aadi",
"iea#.# ## ###o # # # #o#,ayaei",
"iii % ## ##  #o  #### # n0a0qi",
"iii## cNmvmvmMMvN5ki0- #50iiai",
"iiu   0yaiaieiie0aaa0;##vaiiii",
"aii#X qaiiiiiiiia0aqa;# Nuaiei",
"iii###ayiiiiyiii0eyay; #Naiiei",
"y00## iiiiiiiiiiiiida> #viii0a",
"aaq ##iiiiiiiiiieiiii># biiua0",
"0e0# #iiiiiiiiiieiaqi;##muiaqa",
"ii0## uqeeiiiiiil5mvv* #vuiiiu",
"iie% #<- # ### #.   #% #nuiiua",
"iie##  ## # #  #######&#4aiiqa",
"uyu###..##&#### #->>;:137iiaa0",
"iu0# %65kqq0q0iiaiuyi0iiiyai0a",
"iia#  0ea0a0a0a0a0a0a0a0a0a0a0",
"iiy ##ii0a0a0a0a0a0a0a0a0a0a0a",
"iii# #iia0a0a0a0a0a0a0a0a0a0a0",
"iii###ii0a0a0a0a0a0a0a0a0a0a0a",
"0ay   0aa0a0a0a0a0a0a0a0a0a0a0",
"a0a###a00a0a0a0a0a0a0a0a0a0a0a",
"0ae## 0aa0a0a0a0a0a0a0a0a0a0a0",
"a00 ##a00a0a0a0a0a0a0a0a0a0a0a",
"0a0# #qqa0a0a0a0a0a0a0a0a0a0a0",
"a0q## yuya0a0a0a0a0a0a0a0a0a0a",
"yau###taa0a0a0a0a0a0a0a0a0a0a0",
"aya  #he0a0a0a0a0a0a0a0a0a0a0a",
"0aq# #8aa0a0a0a0a0a0a0a0a0a0a0",
"a00# #xu0a0a0a0a0a0a0a0a0a0a0a"
};
