/* XPM */
static char *wall21681658550[] = {
/* columns rows colors chars-per-pixel */
"30 30 236 2 ",
"   c black",
".  c #010000",
"X  c #000100",
"o  c #010101",
"O  c #000002",
"+  c #190101",
"@  c #1B0102",
"#  c #1A0202",
"$  c #1A0104",
"%  c #290302",
"&  c #290203",
"*  c #2A0304",
"=  c #280404",
"-  c #320404",
";  c #330505",
":  c #3A0706",
">  c #3C0606",
",  c #3D0707",
"<  c #3F0706",
"1  c #3A0608",
"2  c #3C0908",
"3  c #490907",
"4  c #440808",
"5  c #4A0A08",
"6  c #480B0A",
"7  c #4A0A0A",
"8  c #4C0B09",
"9  c #4C0A0B",
"0  c #4D0C0A",
"q  c #4C0A0C",
"w  c #4D0B0C",
"e  c #4D0D0D",
"r  c #510B0B",
"t  c #510D0C",
"y  c #520E0D",
"u  c #550D0E",
"i  c #560E0F",
"p  c #5A0E0E",
"a  c #5C0E0E",
"s  c #5D0F0F",
"d  c #5F0F0E",
"f  c #5F110F",
"g  c #550D10",
"h  c #5E1010",
"j  c #61100D",
"k  c #60100F",
"l  c #62110E",
"z  c #65110F",
"x  c #621110",
"c  c #631211",
"v  c #651111",
"b  c #661011",
"n  c #651013",
"m  c #681211",
"M  c #6A1211",
"N  c #6D1312",
"B  c #6D1313",
"V  c #6E1213",
"C  c #6C1412",
"Z  c #6C1413",
"A  c #6C1315",
"S  c #6D1315",
"D  c #6D1514",
"F  c #6E1414",
"G  c #701512",
"H  c #701514",
"J  c #731515",
"K  c #731516",
"L  c #741616",
"P  c #761617",
"I  c #7A1817",
"U  c #7E1718",
"Y  c #7B1918",
"T  c #7C1818",
"R  c #7F1819",
"E  c #7F181B",
"W  c #811916",
"Q  c #801817",
"!  c #811918",
"~  c #801819",
"^  c #821818",
"/  c #801A18",
"(  c #871B1B",
")  c #86191C",
"_  c #881B18",
"`  c #881A19",
"'  c #891B1A",
"]  c #881A1B",
"[  c #881C1C",
"{  c #8B1D1C",
"}  c #8D1D1C",
"|  c #8E1C1C",
" . c #8F1D1D",
".. c #8E1E1D",
"X. c #911D1D",
"o. c #961E1D",
"O. c #951D1E",
"+. c #951F1F",
"@. c #961E1F",
"#. c #981E1D",
"$. c #991F1E",
"%. c #A0201F",
"&. c #971F20",
"*. c #9A1F21",
"=. c #9C2020",
"-. c #9F2122",
";. c #A12120",
":. c #A02021",
">. c #A22020",
",. c #A32121",
"<. c #A22221",
"1. c #A32322",
"2. c #A42222",
"3. c #A52323",
"4. c #A72223",
"5. c #A92322",
"6. c #A82422",
"7. c #A82324",
"8. c #A92324",
"9. c #AD2525",
"0. c #AF2525",
"q. c #AC2625",
"w. c #AD2527",
"e. c #B22625",
"r. c #B22627",
"t. c #B52726",
"y. c #B62626",
"u. c #B72727",
"i. c #B62827",
"p. c #B82828",
"a. c #BD2929",
"s. c #BF2B29",
"d. c #BF292A",
"f. c #BE2A2A",
"g. c #C1282A",
"h. c #C2292B",
"j. c #C02A2B",
"k. c #C42C2B",
"l. c #C72B2C",
"z. c #C82D2B",
"x. c #CA2C2B",
"c. c #C82C2D",
"v. c #CB2D2C",
"b. c #CA2C2D",
"n. c #C92D2E",
"m. c #CC2C2C",
"M. c #CD2D2D",
"N. c #CC2E2D",
"B. c #CC2C2E",
"V. c #CD2D2F",
"C. c #CC2E2F",
"Z. c #CF2F2F",
"A. c #D12F2D",
"S. c #D22E2C",
"D. c #D22E2D",
"F. c #D02D2E",
"G. c #D32F2E",
"H. c #D52F2F",
"J. c #D5302E",
"K. c #D4302F",
"L. c #D8302F",
"P. c #DA312E",
"I. c #D92F30",
"U. c #D63030",
"Y. c #D83030",
"T. c #D93130",
"R. c #DA3030",
"E. c #DB3131",
"W. c #DA3231",
"Q. c #DB3332",
"!. c #DC3030",
"~. c #DD3131",
"^. c #DE3031",
"/. c #DF3132",
"(. c #DC3232",
"). c #DE3232",
"_. c #DF3333",
"`. c #E03231",
"'. c #E13332",
"]. c #E03233",
"[. c #E23232",
"{. c #E33333",
"}. c #E53333",
"|. c #E13430",
" X c #E73533",
".X c #E73334",
"XX c #E63336",
"oX c #E43434",
"OX c #E63434",
"+X c #E73535",
"@X c #E53537",
"#X c #E73437",
"$X c #E83433",
"%X c #EB3532",
"&X c #EA3433",
"*X c #EA3335",
"=X c #E93534",
"-X c #E83435",
";X c #EB3534",
":X c #E83634",
">X c #E93536",
",X c #E83437",
"<X c #E83636",
"1X c #ED3535",
"2X c #ED3734",
"3X c #EC3635",
"4X c #EE3634",
"5X c #EF3536",
"6X c #ED3736",
"7X c #EE3636",
"8X c #EF3737",
"9X c #EE3837",
"0X c #EE3638",
"qX c #F03735",
"wX c #F23635",
"eX c #F03637",
"rX c #F33736",
"tX c #F23637",
"yX c #F43636",
"uX c #F53737",
"iX c #F13835",
"pX c #F13836",
"aX c #F23937",
"sX c #F43836",
"dX c #F43837",
"fX c #F63937",
"gX c #F13738",
"hX c #F03639",
"jX c #F1373A",
"kX c #F83738",
"lX c #F03838",
"zX c #F53938",
"xX c #F43839",
"cX c #F63838",
"vX c #F73A38",
"bX c #F6383A",
/* pixels */
"E w w w w v U.zX=XE w w w w 6.6X{.fXR.l w w e i.wXC.v w w P ",
"A . . . . -.9X/.pX}.U . . v =X+XZ ;.pX/.: . $.6XR.p . . . l ",
";.. . . v %X#Xv ! 6X.XX.g {.pXY . : W fX_.[ ,X=Xx . . . . a ",
"=X9.. . +X6XY . $ H =X*X=XuX~ # . . # [ zXwXhXA . O . . . f ",
"/.6Xs.U.zXU # . . . A lXzXM.# . . . . 6 *XcX+X' . . . . . =.",
"' v.uXfX%.# . . . . s.wX=X6Xc.. . . . /.wX2.6X=XK . . . v =X",
"Z e.wXzXP.. . . . X.0XC.I v.hXS.. . U.zX&.= D =XoX=.. g +XpX",
"O.%X+X9.cX/., . U +X}.p . p i.wXI.v.lX;.; . . D .X,X2._.pX&.",
"+XlXD : *.wX_.' +X6XD . . . 3 7.zXzXS.1 . . . . V ].wXzXO.v ",
"zXE . . ; ! pXwXzXU . . . . . $.lXzX].n . . . . . R.zXpXh.k ",
"u.# . . . # R.zX=X9.. . . . U +X=X;.uX}.E . . . v.hXs.M.6XM.",
"i.. . . . l.pXs.{.6Xl.. . v +XwXV & W 6X.X... h.lXv.7 h M.wX",
"=Xu.. . ;.lXM.4 v v.hXS., |.uXE . . # Z =X,XS.wXS.p . . p s.",
"R.0XM...+X+Xp . . p i.wX6XzX| # . . . . A =XlX6Xs . . . . L ",
"( h.pXpX9XM . . . . 7 }.cX+Xa . . . . . U =XpX9Xf.. . . . 5.",
"Z t  XzXoXc . . . . M.uXl.wX{.v . . . z +X6X[ M.0Xn.. . L =X",
"Z I.zX9.pX].$.. . 9.pXc.e W pX{.' . u |.pXE . p f.pXS.L +X6X",
"M.fX;.; L =X=X9.$.0XR.u . # ! =X=X5./.hX..# . . t 9.hXpXwX..",
"wXM.1 . . A R.6XpX=Xl . . . # D ].zXzX=.= . . . . M =XzX.XH ",
"].p . . . . ) 6XuX/., . . . . . R.zXwXS.. . . . , _.zX7.lX{.",
" X' . . . : {.wXp.fX/.z . . . c.wXs.s.pXI.. . 2 R.zX..= W hX",
"6X+Xu.. . /.fXU , &.pX{.( . e.lXM.7 9 -.zXR., U.fX*.% . # ..",
"X.R.6XM.R.lXO.# . ; L =X.XS.6X/.p . . : =.wXhXuXq.; . . . l ",
"A n h.zXzX6.; . . . . A =XzX9Xx . . . . * R.cX%XE . . . . l ",
"Z . k.fXzX{.H . . . . ( 6X0XpXK.: . . . c.pXv.6X}.*.. . . h ",
"Z 2.wXR.) pX+Xr.. . H =X=X! 9.pX_.2 . i.lXh.e D =X=Xs.. . x ",
";.=XoXx . D R.9XM., +X0XD . 4 ! wX{.f.0XS.t . . A U.6Xv.. h ",
"=X=XM . . . c c.wX0XfX! . . . # H lXzX=Xh . . . . x k.wXU.H ",
"lXE . . . . . i +XzX+XE . . . . X.6XhXhXh.. . . . . u 9.wX_.",
"2.r 9 9 9 q 9 W.lXh.9X=Xu.7 9 O.=X6X&.S.6XP.9 9 w 7 w x ;.zX"
};
