/* XPM */
static char *wall1681599735[] = {
/* columns rows colors chars-per-pixel */
"30 30 171 2 ",
"   c black",
".  c #010101",
"X  c #0C0C0C",
"o  c gray5",
"O  c #0E0E0E",
"+  c #151515",
"@  c #161616",
"#  c gray11",
"$  c #1D1D1D",
"%  c #222222",
"&  c #232323",
"*  c #252525",
"=  c gray15",
"-  c #2A2A2A",
";  c gray18",
":  c #2F2F2F",
">  c #323232",
",  c gray20",
"<  c #353535",
"1  c #373737",
"2  c gray22",
"3  c #3A3A3A",
"4  c gray23",
"5  c gray24",
"6  c gray25",
"7  c #414141",
"8  c gray26",
"9  c gray27",
"0  c gray28",
"q  c #494949",
"w  c #4B4B4B",
"e  c #4C4C4C",
"r  c gray30",
"t  c gray31",
"y  c #515151",
"u  c #535353",
"i  c #555555",
"p  c #565656",
"a  c #585858",
"s  c gray35",
"d  c #5A5A5A",
"f  c gray36",
"g  c #5D5D5D",
"h  c #5F5F5F",
"j  c #606060",
"k  c #626262",
"l  c #656565",
"z  c gray40",
"x  c #676767",
"c  c #686868",
"v  c DimGray",
"b  c #6A6A6A",
"n  c #6C6C6C",
"m  c #6D6D6D",
"M  c gray43",
"N  c gray44",
"B  c #717171",
"V  c #727272",
"C  c gray45",
"Z  c #747474",
"A  c gray46",
"S  c #777777",
"D  c gray47",
"F  c #797979",
"G  c gray48",
"H  c #7C7C7C",
"J  c gray49",
"K  c gray50",
"L  c #808080",
"P  c #818181",
"I  c gray51",
"U  c #838383",
"Y  c #848484",
"T  c gray52",
"R  c #868686",
"E  c gray53",
"W  c #888888",
"Q  c gray54",
"!  c #8B8B8B",
"~  c gray55",
"^  c #8D8D8D",
"/  c #8E8E8E",
"(  c gray56",
")  c #909090",
"_  c gray57",
"`  c #939393",
"'  c gray58",
"]  c #959595",
"[  c gray59",
"{  c #989898",
"}  c #9A9A9A",
"|  c #9B9B9B",
" . c gray61",
".. c #9D9D9D",
"X. c gray62",
"o. c #9F9F9F",
"O. c #A0A0A0",
"+. c gray63",
"@. c #A2A2A2",
"#. c gray64",
"$. c #A4A4A4",
"%. c #A5A5A5",
"&. c gray65",
"*. c gray66",
"=. c #AAAAAA",
"-. c gray67",
";. c #ACACAC",
":. c gray68",
">. c #AEAEAE",
",. c #AFAFAF",
"<. c #B1B1B1",
"1. c #B2B2B2",
"2. c gray70",
"3. c #B4B4B4",
"4. c gray71",
"5. c #B6B6B6",
"6. c gray72",
"7. c #B9B9B9",
"8. c gray73",
"9. c #BBBBBB",
"0. c #BCBCBC",
"q. c gray74",
"w. c gray",
"e. c gray75",
"r. c #C0C0C0",
"t. c #C1C1C1",
"y. c gray76",
"u. c #C3C3C3",
"i. c gray77",
"p. c #C5C5C5",
"a. c gray78",
"s. c #C8C8C8",
"d. c gray79",
"f. c #CACACA",
"g. c #CBCBCB",
"h. c gray80",
"j. c #CDCDCD",
"k. c #CECECE",
"l. c gray81",
"z. c #D0D0D0",
"x. c gray82",
"c. c #D2D2D2",
"v. c LightGray",
"b. c gray83",
"n. c #D5D5D5",
"m. c gray84",
"M. c #D7D7D7",
"N. c #D8D8D8",
"B. c gray85",
"V. c #DADADA",
"C. c gray86",
"Z. c gainsboro",
"A. c #DDDDDD",
"S. c gray87",
"D. c #DFDFDF",
"F. c gray88",
"G. c #E1E1E1",
"H. c #E2E2E2",
"J. c gray89",
"K. c #E4E4E4",
"L. c gray90",
"P. c #E6E6E6",
"I. c #E7E7E7",
"U. c gray91",
"Y. c #E9E9E9",
"T. c #EAEAEA",
"R. c gray92",
"E. c #ECECEC",
"W. c gray93",
"Q. c #EEEEEE",
"!. c #EFEFEF",
/* pixels */
"        o 0 W s.Z.s.W 0       @ r { l.Z.7.m %               ",
"r         o 5 Y a.F.l.] r       @ r ^ s.F.0.C -             ",
"O.r o         < F r.F.n.O.r @       4 ^ l.F.r.S <           ",
"Z.*.u @         = C 0.K.Z.O.p @     o 7 Y l.K.a.L -         ",
"F.K.1.s @         % c 5.K.F.1.s @       < L s.Y.s.S < o     ",
"%.Z.E.7.s o         # h ,.K.Y.5.h o       ; S a.E.s.W 5     ",
"0 ] n.E.0.c @         o r O.C.Y.7.c @       # c a.E.n.^ 7   ",
"o 4 Y z.Y.r.F ,         o 7 ` n.Y.r.F =       # x r.Y.n.{ u ",
"  o 5 L s.K.s.Y 4         o 0 W l.K.s.L ,       # x 0.F.C.%.",
"    o < F r.F.l.] s         o 7 L a.F.l.W 7       % c 1.C.C.",
"        - C 0.Z.n.,.x         o 5 L r.F.l.] q       % x ,.C.",
"h         = C 5.Z.Z.7.c         X 4 K 0.F.z...s       % x ,.",
"1.c -       = c *.n.F.0.m #         , C 7.Z.n.,.h X     % x ",
"F.0.S ,       # h ..z.K.a.C ;         = m 5.Z.Z.1.h #     # ",
"n.K.s.F 5 o     @ r ` s.Y.s.F 4 o       = x *.Z.F.1.k %     ",
"^ a.E.s.Y q #     o 7 Y s.E.s.L 7 @       @ p %.Z.K.5.x %   ",
"- m r.Y.z...s #     o ; C 0.E.z.` q @       @ r { C.Y.0.c # ",
"  # h 5.Y.Z.*.h         @ h r.Y.C.O.p           5 ` z.Y.a.S ",
"      r 1.F.F.0.C         @ h 5.K.Z.1.x           , L l.Y.s.",
"      o u O.z.K.s.K %       @ p ,.C.F.0.C         o < K r.K.",
"u       @ q W a.K.z.^ 4       # s ..z.F.a.F         o , m 0.",
",.C @     o 0 L r.F.n.{ u       @ u ] s.Z.s.K #         - C ",
"Z.r.L 4 o   o 5 F 5.Z.C.%.x #     @ q W r.F.s.L 4         - ",
"n.K.l.W 0 o   o , c *.Z.Z.7.F ;     o 5 K r.F.z.^ 7 o       ",
"` a.F.n.] u %     # s %.Z.F.s.L 4 o   o < C 5.F.n.` p #     ",
"< F 5.F.n.%.c <     @ u { l.K.l.W 0 o     = x 1.K.C.%.x -   ",
"  # h %.Z.Z.7.L 4     o 4 L a.F.z.^ 0 @     @ s ,.K.Z.5.C ; ",
"      7 O.n.K.s.W <       - C 1.K.n.{ s %     o r *.Z.K.r.F ",
"        4 ^ l.K.n.{ < o     o u *.F.Z.5.C @       7 ..z.Y.s.",
"          , L 7.K.Z.O.s         0 %.Z.K.r.F         4 W s.Y."
};
